<?xml version="1.0" encoding="UTF-8"?>
<svg width="24px" height="24px" viewBox="0 0 24 24" version="1.1" xmlns="http://www.w3.org/2000/svg" xmlns:xlink="http://www.w3.org/1999/xlink">
    <!-- Generator: sketchtool 53 (72520) - https://sketchapp.com -->
    <title>A22D1EBD-CD49-4B5C-890E-88C221069909-569-0000E5AF1CEC927A_icon</title>
    <desc>Created with sketchtool.</desc>
    <g id="Desktop" stroke="none" stroke-width="1" fill="none" fill-rule="evenodd">
        <g id="homepage_v01" transform="translate(-1211.000000, -142.000000)" fill="#FFFFFF" fill-rule="nonzero">
            <g id="Desktop-/-Header">
                <g id="Secondary-Nav" transform="translate(0.000000, 130.000000)">
                    <path d="M1223,12 C1216.4,12 1211,17.4 1211,24 C1211,30.6 1216.4,36 1223,36 C1229.6,36 1235,30.6 1235,24 C1235,17.4 1229.6,12 1223,12 Z M1223,15.6 C1225.04,15.6 1226.6,17.16 1226.6,19.2 C1226.6,21.24 1225.04,22.8 1223,22.8 C1220.96,22.8 1219.4,21.24 1219.4,19.2 C1219.4,17.16 1220.96,15.6 1223,15.6 Z M1223,32.64 C1220,32.64 1217.36,31.0800471 1215.8,28.8 C1215.8,26.4 1220.6,25.08 1223,25.08 C1225.4,25.08 1230.2,26.4 1230.2,28.8 C1228.64,31.08 1226,32.64 1223,32.64 Z" id="account"></path>
                </g>
            </g>
        </g>
    </g>
</svg>