<?xml version="1.0" encoding="UTF-8"?>
<svg width="22px" height="20px" viewBox="0 0 22 20" version="1.1" xmlns="http://www.w3.org/2000/svg" xmlns:xlink="http://www.w3.org/1999/xlink">
    <!-- Generator: sketchtool 53 (72520) - https://sketchapp.com -->
    <title>6D5314CC-50AA-416A-B4C4-9DD6B84D1064-569-0000E5AF1CEEF301_icon</title>
    <desc>Created with sketchtool.</desc>
    <g id="Desktop" stroke="none" stroke-width="1" fill="none" fill-rule="evenodd">
        <g id="homepage_v01" transform="translate(-728.000000, -10.000000)" fill="#8C9199" fill-rule="nonzero">
            <g id="Desktop-/-Header">
                <g id="Top">
                    <g id="Group-2" transform="translate(207.000000, 8.000000)">
                        <g id="3" transform="translate(521.000000, 2.000000)">
                            <path d="M16.1892631,18 L14.9613662,18 C14.938266,18 14.9151658,17.9950035 14.8943756,17.9825123 C14.6633735,17.847632 13.4436593,16.1188457 13.1965102,14.4424977 C13.1780069,14.3175854 13.0324987,14.2701187 12.951648,14.3650521 L12.1500476,15.3243785 C12.0761269,15.4143154 11.969889,15.4642803 11.8589849,15.4642803 C11.7365307,15.4642803 11.6325798,15.369347 11.6118358,15.2394382 C11.519435,14.6548236 11.1082281,13.1259221 9.38495251,13.1259221 C8.46094413,13.1259221 7.02180108,13.5106519 5.68660897,13.9453467 C5.68660897,13.9453467 4.20819557,14.4449959 3.11555566,16.0438734 C3.07859532,16.0988348 3.01853478,16.131312 2.95385419,16.131312 L2.05294602,16.131312 C1.92820489,16.131312 1.83349403,16.0113962 1.8519742,15.8789642 C2.06911617,14.3850131 1.46158066,12.8535883 0.807844732,11.4445775 C0.542192323,10.8724792 0.271919872,10.3203668 0.0455378191,9.7982334 C-0.000662599884,9.6908338 -0.0122127046,9.56839477 0.0131975258,9.4509772 L0.426691275,7.58728569 C0.465961631,7.40741198 0.590702763,7.26251371 0.75471425,7.2075523 C1.63945227,6.90776278 4.46460789,5.8285205 4.71871019,4.24213429 C4.72333024,4.2096571 4.73950038,4.18217639 4.76029057,4.15969218 L7.16964242,1.64895494 C7.22972606,1.58649879 7.32674694,1.59399353 7.37987743,1.66394442 C7.60625948,1.97122868 8.2368721,2.65574808 9.1747637,2.31848487 L8.88367796,2.00120763 C8.82592744,1.94124973 8.82826056,1.84131989 8.88601108,1.78136198 L9.98786798,0.657151282 C10.0132782,0.629670576 10.0479285,0.6146811 10.0848889,0.6146811 L13.4436593,0.6146811 C13.5638035,0.6146811 13.630771,0.767074106 13.5545634,0.867003946 L12.4757605,2.28350943 C12.4226532,2.35595856 12.4364902,2.46088489 12.5081008,2.51084981 C12.8915643,2.78066038 14.0119245,3.57260436 14.7026207,4.05976234 C15.0537901,4.30708869 15.5273444,4.15219744 15.6866897,3.73249211 C15.8645844,3.26532011 16.0308828,2.53833052 16.0331928,1.45659 C16.0331928,1.43910228 16.0355259,1.41911631 16.0424329,1.40162859 L16.5090802,0.0975441783 C16.5529475,-0.0223716297 16.705432,-0.0348628597 16.7654925,0.0775582103 C16.9942077,0.507256522 17.4030583,1.41911631 17.4030583,2.48336911 L17.6271072,2.30849189 C17.6895009,2.25852697 17.7772586,2.27351644 17.823459,2.33847084 L18.3132066,3.02798674 C18.3339968,3.05796569 18.3432137,3.09793762 18.3409037,3.13541131 C18.3085634,3.50764997 18.2184957,5.55870994 19.8840208,6.38063287 C19.914028,6.39562235 19.9394613,6.42060481 19.9533214,6.453082 L21.9861399,10.849995 C21.9954031,10.8725042 22,10.8949634 22,10.9199459 L22,12.7711711 C22,13.0534729 21.8890959,13.3207852 21.6927441,13.5081537 C20.8957869,14.272617 18.8121711,16.3936278 18.6851199,17.8625965 C18.6781668,17.9400421 18.6181062,18 18.5442087,18 L18.8098132,18 C18.934915,18 19.0246511,18.1094644 18.9939364,18.2233968 L18.6043951,19.675476 C18.5265105,19.9636578 18.1700449,20.093228 17.9079426,19.9256804 C17.4263752,19.6173928 16.699208,19.0790065 16.0405055,18.2881819 C15.943734,18.1720155 16.0310621,18 16.1892631,18 Z" id="aus"></path>
                        </g>
                    </g>
                </g>
            </g>
        </g>
    </g>
</svg>