<?xml version="1.0" encoding="UTF-8"?>
<svg width="24px" height="24px" viewBox="0 0 24 24" version="1.1" xmlns="http://www.w3.org/2000/svg" xmlns:xlink="http://www.w3.org/1999/xlink">
    <!-- Generator: sketchtool 53 (72520) - https://sketchapp.com -->
    <title>3968EAC8-49B3-4BD3-8BE9-C563C9555780-569-0000E5AF1CEC5ACB_icon</title>
    <desc>Created with sketchtool.</desc>
    <g id="Desktop" stroke="none" stroke-width="1" fill="none" fill-rule="evenodd">
        <g id="homepage_v01" transform="translate(-1345.000000, -142.000000)" fill="#FFFFFF" fill-rule="nonzero">
            <g id="Desktop-/-Header">
                <g id="Secondary-Nav" transform="translate(0.000000, 130.000000)">
                    <path d="M1368.74586,18.913179 C1368.95767,19.1887707 1369.03701,19.5194807 1368.98415,19.9053091 L1367.97802,25.9132534 C1367.94272,26.2256807 1367.80588,26.4828096 1367.56763,26.6849102 C1367.32934,26.8870108 1367.0602,26.9880611 1366.76009,26.9880611 L1352.09189,26.9880611 L1351.80064,28.6967297 L1365.78049,28.6967297 C1366.11586,28.6967297 1366.40693,28.8207459 1366.65418,29.0687785 C1366.90134,29.316811 1367.02477,29.6245551 1367.02477,29.9920107 C1367.02477,30.3594663 1366.9013,30.6672104 1366.65418,30.9152429 C1366.40693,31.1632755 1366.11586,31.2872917 1365.78049,31.2872917 L1350.31793,31.2872917 C1349.94726,31.2872917 1349.62953,31.1311231 1349.36477,30.8189209 C1349.11765,30.5064936 1349.02057,30.1481793 1349.07352,29.7441132 L1349.73544,25.996066 L1348.72932,15.4683727 L1345.86982,14.5313609 C1345.53444,14.4211242 1345.29174,14.2097922 1345.1417,13.8974999 C1344.99166,13.5851176 1344.96077,13.2544526 1345.04903,12.9053698 C1345.15494,12.556287 1345.36234,12.3036612 1345.67124,12.1474926 C1345.98014,11.991324 1346.29345,11.9591716 1346.61117,12.0510355 L1350.26498,13.263639 C1350.49445,13.3371301 1350.6842,13.474926 1350.83423,13.6770266 C1350.98427,13.8791272 1351.07694,14.108832 1351.11224,14.3660509 L1351.32406,16.4605479 L1367.89859,18.3896898 C1368.26927,18.4446731 1368.55169,18.6192145 1368.74586,18.913179 Z M1352.19784,32.0038302 C1352.72737,32.0038302 1353.17748,32.1967444 1353.54816,32.5826628 C1353.91884,32.9683561 1354.10417,33.4369971 1354.10417,33.9881805 C1354.10417,34.5392289 1353.91884,35.012463 1353.54816,35.4074778 C1353.17748,35.8024926 1352.72737,36 1352.19784,36 C1351.6683,36 1351.21819,35.8024926 1350.84752,35.4074778 C1350.47684,35.0125081 1350.2915,34.5393639 1350.2915,33.9881805 C1350.2915,33.4369971 1350.47684,32.9684011 1350.84752,32.5826628 C1351.21815,32.1967444 1351.66826,32.0038302 1352.19784,32.0038302 Z M1363.50343,32.0038302 C1364.03288,32.0038302 1364.48312,32.1967444 1364.85379,32.5826628 C1365.2243,32.9683561 1365.40981,33.4369971 1365.40981,33.9881805 C1365.40981,34.5392289 1365.22443,35.012463 1364.85379,35.4074778 C1364.48312,35.8024926 1364.03288,36 1363.50343,36 C1362.97389,36 1362.5237,35.8024926 1362.15315,35.4074778 C1361.78247,35.0125081 1361.59701,34.5393639 1361.59701,33.9881805 C1361.59701,33.4369971 1361.78239,32.9684011 1362.15315,32.5826628 C1362.52378,32.1967444 1362.97389,32.0038302 1363.50343,32.0038302 Z" id="cart"></path>
                </g>
            </g>
        </g>
    </g>
</svg>