<?xml version="1.0" encoding="UTF-8"?>
<svg width="256px" height="58px" viewBox="0 0 256 58" version="1.1" xmlns="http://www.w3.org/2000/svg" xmlns:xlink="http://www.w3.org/1999/xlink">
    <!-- Generator: sketchtool 53 (72520) - https://sketchapp.com -->
    <title>A30B9933-9273-4E9A-97B0-BCD390CC05DC-569-0000E5AF1CED6EFF_icon</title>
    <desc>Created with sketchtool.</desc>
    <g id="Desktop" stroke="none" stroke-width="1" fill="none" fill-rule="evenodd">
        <g id="homepage_v01" transform="translate(-181.000000, -56.000000)">
            <g id="Desktop-/-Header">
                <g id="Middle" transform="translate(181.000000, 56.000000)">
                    <g id="Logo">
                        <path d="M77.8378776,41 C75.6009728,41 73.5805101,40.4836772 71.7764897,39.4499713 C69.9724692,38.4162654 68.5590514,36.988161 67.5352295,35.1667182 C66.5124143,33.3442152 66,31.2884658 66,29.0005301 C66,26.7115342 66.5174478,24.6557848 67.5513368,22.8332818 C68.5852258,21.011839 70.0046838,19.5837346 71.8087043,18.5500287 C73.6127248,17.517383 75.6321807,17 77.8690856,17 C79.6841799,17 81.3402143,17.3339665 82.8381956,17.9997791 C84.3371835,18.6666519 85.6026153,19.6335645 86.6365043,20.9005169 L83.9777888,23.5330212 C82.3741032,21.7115784 80.4009558,20.7997968 78.0593534,20.7997968 C76.5392245,20.7997968 75.1791622,21.1496665 73.9761463,21.8504661 C72.7731304,22.5502054 71.833872,23.522419 71.1593777,24.7671069 C70.4838768,26.0107346 70.1466296,27.4218757 70.1466296,29.0005301 C70.1466296,30.5781243 70.4838768,31.9892654 71.1593777,33.2328931 C71.833872,34.477581 72.7731304,35.4497946 73.9761463,36.1495339 C75.1791622,36.8503335 76.5392245,37.2002032 78.0593534,37.2002032 C80.4009558,37.2002032 82.3741032,36.2778195 83.9777888,34.4330521 L86.6365043,37.0994831 C85.6026153,38.3664355 84.3311433,39.3333481 82.8220882,40.0002209 C81.3140399,40.6660335 79.6519652,41 77.8378776,41 Z M100.94283,41 C98.6847839,41 96.6482139,40.4836772 94.8341263,39.4499713 C93.0200388,38.4162654 91.5955472,36.9828599 90.5606515,35.1497548 C89.5267625,33.3166497 89.0103214,31.2662014 89.0103214,29.0005301 C89.0103214,26.7337986 89.5267625,24.6833503 90.5606515,22.8502452 C91.5955472,21.0171401 93.0200388,19.5837346 94.8341263,18.5500287 C96.6482139,17.517383 98.6847839,17 100.94283,17 C103.199869,17 105.236439,17.517383 107.051533,18.5500287 C108.86562,19.5837346 110.290112,21.011839 111.324001,22.8332818 C112.35789,24.6557848 112.874331,26.7115342 112.874331,29.0005301 C112.874331,31.2884658 112.35789,33.3442152 111.324001,35.1667182 C110.290112,36.988161 108.86562,38.4162654 107.051533,39.4499713 C105.236439,40.4836772 103.199869,41 100.94283,41 Z M100.94283,37.2002032 C102.41967,37.2002032 103.749531,36.8503335 104.930399,36.1495339 C106.112274,35.4497946 107.040459,34.4722799 107.71596,33.2169899 C108.391461,31.9606397 108.728708,30.5558599 108.728708,29.0005301 C108.728708,27.4441401 108.391461,26.0393603 107.71596,24.7830101 C107.040459,23.5277201 106.112274,22.5502054 104.930399,21.8504661 C103.749531,21.1496665 102.41967,20.7997968 100.94283,20.7997968 C99.4659892,20.7997968 98.1361281,21.1496665 96.9552598,21.8504661 C95.7733848,22.5502054 94.8441934,23.5277201 94.1696992,24.7830101 C93.4941982,26.0393603 93.1569511,27.4441401 93.1569511,29.0005301 C93.1569511,30.5558599 93.4941982,31.9606397 94.1696992,33.2169899 C94.8441934,34.4722799 95.7733848,35.4497946 96.9552598,36.1495339 C98.1361281,36.8503335 99.4659892,37.2002032 100.94283,37.2002032 Z M127.5924,41 C125.335361,41 123.298791,40.4836772 121.483697,39.4499713 C119.669609,38.4162654 118.245117,36.9828599 117.211229,35.1497548 C116.17734,33.3166497 115.659892,31.2662014 115.659892,29.0005301 C115.659892,26.7337986 116.17734,24.6833503 117.211229,22.8502452 C118.245117,21.0171401 119.669609,19.5837346 121.483697,18.5500287 C123.298791,17.517383 125.335361,17 127.5924,17 C129.850446,17 131.886009,17.517383 133.701103,18.5500287 C135.516197,19.5837346 136.940689,21.011839 137.974578,22.8332818 C139.008467,24.6557848 139.524908,26.7115342 139.524908,29.0005301 C139.524908,31.2884658 139.008467,33.3442152 137.974578,35.1667182 C136.940689,36.988161 135.516197,38.4162654 133.701103,39.4499713 C131.886009,40.4836772 129.850446,41 127.5924,41 Z M127.5924,37.2002032 C129.070247,37.2002032 130.399101,36.8503335 131.580976,36.1495339 C132.762851,35.4497946 133.691036,34.4722799 134.366537,33.2169899 C135.041031,31.9606397 135.378278,30.5558599 135.378278,29.0005301 C135.378278,27.4441401 135.041031,26.0393603 134.366537,24.7830101 C133.691036,23.5277201 132.762851,22.5502054 131.580976,21.8504661 C130.399101,21.1496665 129.070247,20.7997968 127.5924,20.7997968 C126.115559,20.7997968 124.786705,21.1496665 123.60483,21.8504661 C122.422955,22.5502054 121.49477,23.5277201 120.819269,24.7830101 C120.143768,26.0393603 119.806521,27.4441401 119.806521,29.0005301 C119.806521,30.5558599 120.143768,31.9606397 120.819269,33.2169899 C121.49477,34.4722799 122.422955,35.4497946 123.60483,36.1495339 C124.786705,36.8503335 126.115559,37.2002032 127.5924,37.2002032 Z M143.893013,17.3339665 L148.007428,17.3339665 L148.007428,36.9998233 L159.591616,36.9998233 L159.591616,40.6660335 L143.893013,40.6660335 L143.893013,17.3339665 Z M179.120741,40.6660335 L173.834518,32.8671202 C173.05432,32.9773822 172.336537,33.0335734 171.683184,33.0335734 L165.351998,33.0335734 L165.351998,40.6660335 L163.738245,40.6660335 L163.738245,17.3339665 L171.683184,17.3339665 C174.467738,17.3339665 176.651287,18.0284048 178.233832,19.4172814 C179.816376,20.8061581 180.608656,22.7336219 180.608656,25.2007333 C180.608656,27.0444405 180.159664,28.5944692 179.262687,29.8508195 C178.366717,31.1050493 177.084171,31.9892654 175.417063,32.5002871 L180.95597,40.6660335 L179.120741,40.6660335 Z M171.683184,31.5333746 C174.045927,31.5333746 175.849948,30.983125 177.095245,29.883686 C178.339536,28.7831868 178.961682,27.222556 178.961682,25.2007333 C178.961682,23.1778504 178.339536,21.6172196 177.095245,20.5167204 C175.849948,19.4172814 174.045927,18.8670319 171.683184,18.8670319 L165.351998,18.8670319 L165.351998,31.5333746 L171.683184,31.5333746 Z M186.527091,40.6660335 L188.140844,40.6660335 L188.140844,17.3339665 L186.527091,17.3339665 L186.527091,40.6660335 Z M213.55619,17.3339665 L203.681393,40.6660335 L202.066633,40.6660335 L192.191836,17.3339665 L193.964649,17.3339665 L202.921328,38.4660953 L211.879015,17.3339665 L213.55619,17.3339665 Z M232.895048,39.1329681 L232.895048,40.6660335 L217.607183,40.6660335 L217.607183,17.3339665 L232.419882,17.3339665 L232.419882,18.8670319 L219.221942,18.8670319 L219.221942,28.0664841 L231.027605,28.0664841 L231.027605,29.5666829 L219.221942,29.5666829 L219.221942,39.1329681 L232.895048,39.1329681 Z M254.164772,40.6660335 L248.878549,32.8671202 C248.097343,32.9773822 247.380567,33.0335734 246.726207,33.0335734 L240.396028,33.0335734 L240.396028,40.6660335 L238.781269,40.6660335 L238.781269,17.3339665 L246.726207,17.3339665 C249.511768,17.3339665 251.695317,18.0284048 253.277862,19.4172814 C254.860407,20.8061581 255.651679,22.7336219 255.651679,25.2007333 C255.651679,27.0444405 255.202687,28.5944692 254.306717,29.8508195 C253.409741,31.1050493 252.128202,31.9892654 250.461093,32.5002871 L256,40.6660335 L254.164772,40.6660335 Z M246.726207,31.5333746 C249.089957,31.5333746 250.893978,30.983125 252.138269,29.883686 C253.383566,28.7831868 254.005712,27.222556 254.005712,25.2007333 C254.005712,23.1778504 253.383566,21.6172196 252.138269,20.5167204 C250.893978,19.4172814 249.089957,18.8670319 246.726207,18.8670319 L240.396028,18.8670319 L240.396028,31.5333746 L246.726207,31.5333746 L246.726207,31.5333746 Z" id="cr_text" fill="#FFFFFF"></path>
                        <path d="M2.66666667,42.3058824 L2.66666667,15.9218135 L25.3333333,2.72941176 L48,15.9218135 L48,38.7313329 L35.8641713,22.0892889 L32.3910648,28.1531648 L29.3509122,34.1134413 L32.1862499,40.4352137 L27.6599138,34.2787596 L31.6760349,26.9055626 L25.4587005,16.0496597 L17.3076511,30.28173 L18.8266341,34.6086615 L15.7726328,30.2111942 L18.575171,25.317772 L16.8987502,23.6278514 L10.0378159,35.6086536 L7.79651425,33.3493033 L2.66666667,42.3058824 Z M30.7663745,54.6558717 L50,43.5007314 L50,14.5 L25,0 L0,14.5 L0,43.5007314 L25,58 C29.3393424,54.1584948 29.0801468,44.9233757 23.0465678,43.0172518 C20.3519527,42.1658596 16.9045053,44.2972659 14.1429071,43.5541263 C10.3088505,42.2199859 9.5946064,39.1428319 9.7212919,35.4658999 C12.6896642,44.0895379 21.6231762,39.2854621 25,39.3403198 C29.5621341,39.3403198 33.2352856,44.0112742 31.7347177,51.3585553 C31.5206628,52.4052411 31.2024929,53.5067847 30.7663745,54.6558717 Z" id="cr_icon" fill="#8AD038"></path>
                    </g>
                </g>
            </g>
        </g>
    </g>
</svg>