<?xml version="1.0" encoding="UTF-8"?>
<svg width="20px" height="20px" viewBox="0 0 20 20" version="1.1" xmlns="http://www.w3.org/2000/svg" xmlns:xlink="http://www.w3.org/1999/xlink">
    <!-- Generator: sketchtool 53 (72520) - https://sketchapp.com -->
    <title>41645B3B-79A3-42F6-A859-F6EA1A1EE3A8-569-0000E5AF1CED458D_icon</title>
    <desc>Created with sketchtool.</desc>
    <g id="Desktop" stroke="none" stroke-width="1" fill="none" fill-rule="evenodd">
        <g id="homepage_v01" transform="translate(-942.000000, -75.000000)" fill="#FFFFFF" fill-rule="nonzero">
            <g id="Desktop-/-Header">
                <g id="Middle" transform="translate(181.000000, 56.000000)">
                    <g id="Search" transform="translate(441.000000, 5.000000)">
                        <g transform="translate(303.000000, 0.000000)" id="search">
                            <path d="M36.6331966,31.8624903 L30.6098956,25.8393553 C31.4817726,24.613725 31.9997222,23.1187614 31.9997222,21.5 C31.9997549,17.3581362 28.6417589,14 24.4998938,14 C20.357996,14 17,17.3581362 17,21.5 C17,25.6418638 20.357996,29 24.4998938,29 C26.1185477,29 27.613376,28.481934 28.8391804,27.6100533 L34.8624814,33.6331232 C35.1069952,33.8775019 35.4275887,34 35.7481822,34 C36.068841,34 36.3893691,33.8775019 36.633262,33.6331232 C37.1222569,33.1443982 37.1222569,32.3512152 36.6331966,31.8624903 Z M28.5732283,24.3900117 L28.0816517,25.0812321 L27.3902025,25.5731089 C26.5378029,26.1793605 25.5383094,26.5 24.4998938,26.5 C21.7428226,26.5 19.4999755,24.256856 19.4999755,21.5 C19.4999755,18.7431115 21.7428226,16.5 24.4998938,16.5 C27.256965,16.5 29.4998448,18.7431115 29.4998448,21.5 C29.5004003,22.5381141 29.1798395,23.5374968 28.5732283,24.3900117 Z"></path>
                        </g>
                    </g>
                </g>
            </g>
        </g>
    </g>
</svg>