<?xml version="1.0" encoding="UTF-8"?>
<svg width="24px" height="24px" viewBox="0 0 24 24" version="1.1" xmlns="http://www.w3.org/2000/svg" xmlns:xlink="http://www.w3.org/1999/xlink">
    <!-- Generator: sketchtool 53 (72520) - https://sketchapp.com -->
    <title>1C407BEE-E770-412B-A004-2DF565DD8C5D-569-0000E5AF1CEEB689_icon</title>
    <desc>Created with sketchtool.</desc>
    <g id="Desktop" stroke="none" stroke-width="1" fill="none" fill-rule="evenodd">
        <g id="homepage_v01" transform="translate(-957.000000, -8.000000)" fill="#8C9199" fill-rule="nonzero">
            <g id="Desktop-/-Header">
                <g id="Top">
                    <g id="Group-2" transform="translate(207.000000, 8.000000)">
                        <g id="4" transform="translate(750.000000, 0.000000)">
                            <path d="M12,-5.32907052e-15 C5.37304688,-5.32907052e-15 0,5.37304687 0,12 C0,18.6269531 5.37304688,24 12,24 C18.6269531,24 24,18.6269531 24,12 C24,5.37304687 18.6269531,-5.32907052e-15 12,-5.32907052e-15 Z M12,22 C6.48660714,22 2,17.5133929 2,12 C2,6.48660714 6.48660714,2 12,2 C17.5133929,2 22,6.48660714 22,12 C22,17.5133929 17.5133929,22 12,22 Z M15.5355873,12.4922 C15.8447393,13.00785 16,13.6094 16,14.29845 C16,15.35625 15.6798413,16.2375 15.0410456,16.9422 C14.4022498,17.64845 13.4798154,18.0641 12.2735393,18.1891 L12.2735393,20 L10.7359964,20 L10.7359964,18.19845 C8.72455576,17.99535 7.48023806,16.8422 7,14.7422 L9.37760445,14.13125 C9.5979418,15.45155 10.3270738,16.11095 11.5650005,16.11095 C12.1435383,16.11095 12.5715324,15.97035 12.8441644,15.6875 C13.1167964,15.40465 13.253087,15.06405 13.253087,14.66405 C13.253087,14.25 13.1167457,13.9359 12.8441644,13.7234 C12.5715324,13.5094 11.9644381,13.239 11.0245045,12.9109 C10.179675,12.6219 9.51866296,12.33745 9.04314207,12.05315 C8.56762118,11.7719 8.18086419,11.3766 7.88444349,10.86875 C7.58802279,10.35935 7.43905161,9.7656 7.43905161,9.0906 C7.43905161,8.20465 7.7053433,7.4062 8.23478192,6.69685 C8.76422054,5.98905 9.5979418,5.5562 10.7360472,5.3984 L10.7360472,4 L12.2735901,4 L12.2735901,5.39845 C13.9918055,5.6016 15.1045498,6.5594 15.610149,8.27345 L13.4924959,9.1297 C13.0788054,7.9547 12.4415314,7.3672 11.5761594,7.3672 C11.141825,7.3672 10.7931097,7.49845 10.5315859,7.76095 C10.2684389,8.02345 10.1369162,8.3422 10.1369162,8.71565 C10.1369162,9.0969 10.2637218,9.3891 10.5173329,9.5938 C10.7693717,9.79695 11.3130632,10.0485 12.1436397,10.35005 C13.0566398,10.6782 13.7730913,10.9891 14.2914217,11.2813 C14.8112231,11.57345 15.2249644,11.97815 15.5355873,12.4922 Z" id="dollar"></path>
                        </g>
                    </g>
                </g>
            </g>
        </g>
    </g>
</svg>