<?xml version="1.0" encoding="UTF-8"?>
<svg width="26px" height="26px" viewBox="0 0 26 26" version="1.1" xmlns="http://www.w3.org/2000/svg" xmlns:xlink="http://www.w3.org/1999/xlink">
    <!-- Generator: sketchtool 53 (72520) - https://sketchapp.com -->
    <title>CC43147B-D087-461E-9685-9EBFE7AF8CF1-569-0000E5AF1CECFE29_icon</title>
    <desc>Created with sketchtool.</desc>
    <g id="Desktop" stroke="none" stroke-width="1" fill="none" fill-rule="evenodd">
        <g id="homepage_v01" transform="translate(-1280.000000, -72.000000)" fill="#8AD038">
            <g id="Desktop-/-Header">
                <g id="Middle" transform="translate(181.000000, 56.000000)">
                    <g id="Call" transform="translate(955.000000, 16.000000)">
                        <path d="M157,0 C149.820709,0 144,5.82070888 144,13 C144,20.1789737 149.820709,26 157,26 C164.178974,26 170,20.1789737 170,13 C170,5.82070888 164.178974,0 157,0 Z M163.86483,18.9682277 L162.823946,20.0094287 C162.638215,20.1948428 162.093969,20.3109409 162.076323,20.3109409 C158.783492,20.3394417 155.612917,19.0461131 153.283402,16.7165981 C150.947412,14.3790851 149.652624,11.197084 149.687599,7.89339896 C149.687599,7.89162162 149.806617,7.3632453 149.992031,7.17929112 L151.033232,6.13809015 C151.41409,5.75577268 152.145527,5.58267294 152.658034,5.75399534 L152.877281,5.82718346 C153.388265,5.99850587 153.924639,6.56331756 154.065683,7.08407674 L154.589362,9.00569333 C154.730724,9.52791246 154.540295,10.2705211 154.159438,10.6513787 L153.464436,11.3463801 C154.146806,13.8727985 156.128661,15.854654 158.65508,16.5388011 L159.350081,15.8437996 C159.732462,15.4611647 160.475325,15.270736 160.995767,15.4120976 L162.917383,15.9372366 C163.438142,16.0800582 164.002954,16.6134492 164.174276,17.1241791 L164.247465,17.346346 C164.417264,17.8573933 164.245687,18.5891475 163.86483,18.9682277 Z" id="phone"></path>
                    </g>
                </g>
            </g>
        </g>
    </g>
</svg>