<?xml version="1.0" encoding="UTF-8"?>
<svg width="26px" height="18px" viewBox="0 0 26 18" version="1.1" xmlns="http://www.w3.org/2000/svg" xmlns:xlink="http://www.w3.org/1999/xlink">
    <!-- Generator: sketchtool 53 (72520) - https://sketchapp.com -->
    <title>E6DF01A4-7B90-4EB2-98D2-974A7675F7F7-569-0000E5AF1CEE5FCD_icon</title>
    <desc>Created with sketchtool.</desc>
    <g id="Desktop" stroke="none" stroke-width="1" fill="none" fill-rule="evenodd">
        <g id="homepage_v01" transform="translate(-1216.000000, -11.000000)" fill="#8C9199" fill-rule="nonzero">
            <g id="Desktop-/-Header">
                <g id="Top">
                    <g id="Group-2" transform="translate(207.000000, 8.000000)">
                        <g id="5" transform="translate(1009.000000, 3.000000)">
                            <path d="M12.2799787,3.98900962 L10.7410515,7.84554323 C10.6888816,7.97630959 10.5703948,8.06617584 10.4338949,8.07853793 L2.56222982,8.79229518 C2.36909922,8.80978623 2.22253068,8.97930467 2.22758623,9.17920229 L2.38766456,15.554972 C2.39208286,15.7302769 2.51260893,15.8794987 2.67893236,15.9156644 L11.9458874,17.9270027 C12.1724526,17.9761881 12.4027139,18.0005177 12.6329752,17.9999917 L12.6331451,16.1090741 L12.6331451,4.06112181 C12.6330602,3.53481242 12.4741714,3.50237289 12.2799787,3.98900962 Z M11.2023813,15.8790604 L7.72356648,15.3009792 L7.72356648,13.4194429 L11.2023813,13.4194429 L11.2023813,15.8790604 Z M9.68125481,7.16203365 L0.404358606,8.12930141 C0.120950285,8.15884768 -0.085562659,7.85838753 0.0351758282,7.59220807 L2.50538671,2.14385814 C2.55564485,2.03299387 2.65475917,1.95399924 2.77141923,1.93190529 L12.9646874,4.38371975e-05 L9.97970234,6.93903382 C9.92625793,7.0632246 9.81235931,7.14835644 9.68125481,7.16203365 Z M23.4377528,8.79229518 L15.5661302,8.07858177 C15.4295878,8.06621968 15.311101,7.97635343 15.2589736,7.84558707 L13.7200039,3.98905346 C13.5258113,3.50237289 13.36688,3.53481242 13.36688,4.06112181 L13.36688,16.1090303 L13.3670499,17.9999478 C13.5972687,18.0005177 13.8275725,17.9761442 14.0541802,17.9269589 L23.3211352,15.9156206 C23.4874587,15.8794987 23.6079847,15.7302331 23.6123605,15.5549281 L23.7724389,9.17920229 C23.7774944,8.97926083 23.6308409,8.80978623 23.4377528,8.79229518 Z M20.1982908,12.1978317 L19.7635557,12.2102376 L19.7547616,15.0336162 C19.7543793,15.1579823 19.6319414,15.2769126 19.4796801,15.2994888 L18.7671871,15.4052241 C18.6044323,15.4293784 18.4712461,15.343326 18.4715435,15.2126911 L18.4781709,12.2470609 L17.9809,12.2612641 C17.7391256,12.2681466 17.5861421,12.0681174 17.7092172,11.9025443 L18.8918341,10.3123938 C19.0038634,10.1616816 19.2788175,10.1755779 19.3868109,10.3343563 L20.4248985,11.8609867 C20.5232906,12.0057809 20.398856,12.1920452 20.1982908,12.1978317 Z M25.5955815,8.12930141 L16.3186853,7.16203365 C16.1875808,7.14835644 16.0736397,7.0632246 16.0202378,6.93898999 L13.0352952,1.95399252e-14 L23.2285634,1.93186145 C23.3452235,1.9539554 23.4443378,2.03295003 23.4946384,2.1438143 L25.9648493,7.59216423 C26.0855453,7.85838753 25.8789899,8.15884768 25.5955815,8.12930141 Z" id="returns"></path>
                        </g>
                    </g>
                </g>
            </g>
        </g>
    </g>
</svg>