<?xml version="1.0" encoding="UTF-8"?>
<svg width="34px" height="19px" viewBox="0 0 34 19" version="1.1" xmlns="http://www.w3.org/2000/svg" xmlns:xlink="http://www.w3.org/1999/xlink">
    <!-- Generator: sketchtool 53 (72520) - https://sketchapp.com -->
    <title>9FA3EC7F-C924-4334-A2A6-C9674AA9A7C8-569-0000E5AF1CEF260C_icon</title>
    <desc>Created with sketchtool.</desc>
    <g id="Desktop" stroke="none" stroke-width="1" fill="none" fill-rule="evenodd">
        <g id="homepage_v01" transform="translate(-392.000000, -10.000000)" fill="#8C9199" fill-rule="nonzero">
            <g id="Desktop-/-Header">
                <g id="Top">
                    <g id="Group-2" transform="translate(207.000000, 8.000000)">
                        <g id="2" transform="translate(185.000000, 2.000000)">
                            <path d="M12.598,13.339575 C11.0286111,13.339575 9.76033333,14.6079912 9.76033333,16.1720575 C9.76033333,17.7314731 11.0286111,19 12.598,19 C14.1673889,19 15.4356667,17.7314731 15.4356667,16.1720575 C15.4356111,14.6079912 14.1673889,13.339575 12.598,13.339575 Z M12.598,17.5860287 C11.8132778,17.5860287 11.1791111,16.9494399 11.1791111,16.1719468 C11.1791111,15.3900244 11.8132778,14.7579755 12.598,14.7579755 C13.3826667,14.7579755 14.0168333,15.3900244 14.0168333,16.1719468 C14.0167778,16.9494399 13.3826667,17.5860287 12.598,17.5860287 Z M34,11.2473804 L34,14.2670525 C34,15.0202957 33.3872778,15.6309736 32.6313333,15.6309736 L31.1668889,15.6309736 C30.9022778,13.8214182 29.3375,12.430202 27.4487222,12.430202 C25.5646111,12.430202 23.9997222,13.8214735 23.7351111,15.6309736 L16.3125,15.6309736 C16.0478889,13.8214182 14.4830556,12.430202 12.5988889,12.430202 C10.7147222,12.430202 9.14988889,13.8214735 8.88533333,15.6309736 L7.05133333,15.6309736 C6.29544444,15.6309736 5.68272222,15.0203511 5.68272222,14.2670525 L5.68272222,11.2473804 L34,11.2473804 L34,11.2473804 Z M27.4523889,13.339575 C25.883,13.339575 24.6101667,14.6079912 24.6101667,16.1720575 C24.6101667,17.7314731 25.8830556,19 27.4523889,19 C29.0171667,19 30.29,17.7314731 30.29,16.1720575 C30.29,14.6079912 29.0171667,13.339575 27.4523889,13.339575 Z M27.4523889,17.5860287 C26.6676667,17.5860287 26.0335556,16.9494399 26.0335556,16.1719468 C26.0335556,15.3900244 26.6676667,14.7579755 27.4523889,14.7579755 C28.2325,14.7579755 28.8712222,15.3900244 28.8712222,16.1719468 C28.8712222,16.9494399 28.2325,17.5860287 27.4523889,17.5860287 Z M33.4607222,8.20650337 L28.082,2.9052323 C27.7398333,2.56877812 27.2790556,2.37782362 26.8,2.37782362 L24.0855556,2.37782362 L24.0855556,1.36392114 C24.0855556,0.609238408 23.4742222,1.95399252e-14 22.7169444,1.95399252e-14 L7.05038889,1.95399252e-14 C6.29761111,1.95399252e-14 5.68177778,0.609293773 5.68177778,1.36392114 L5.68177778,1.57763072 L0.127777778,2.21554829 L9.96922222,3.49271219 L0,4.47965184 L9.93411111,5.88720074 L0,6.74558244 L5.68211111,7.81357671 L5.68172222,10.4934174 L33.9990556,10.4934174 L33.9990556,9.49767466 C33.9990556,9.01118085 33.8028889,8.54749749 33.4607222,8.20650337 Z M31.1157778,8.38378267 L25.9103889,8.38378267 C25.7917778,8.38378267 25.6959444,8.2883331 25.6959444,8.17012845 L25.6959444,4.16462398 C25.6959444,4.04641933 25.7917778,3.9509144 25.9103889,3.9509144 L26.9003889,3.9509144 C26.9551111,3.9509144 27.0098889,3.97366949 27.0509444,4.01004441 L31.2618333,8.01554887 C31.4031667,8.14737336 31.3073333,8.38378267 31.1157778,8.38378267 Z" id="shipping"></path>
                        </g>
                    </g>
                </g>
            </g>
        </g>
    </g>
</svg>