<?xml version="1.0" encoding="UTF-8"?>
<svg width="55px" height="50px" viewBox="0 0 55 50" version="1.1" xmlns="http://www.w3.org/2000/svg" xmlns:xlink="http://www.w3.org/1999/xlink">
    <!-- Generator: sketchtool 53 (72520) - https://sketchapp.com -->
    <title>D8A0EA17-5706-4D0E-8C2B-FA70C229AEE4_icon</title>
    <desc>Created with sketchtool.</desc>
    <g id="Desktop" stroke="none" stroke-width="1" fill="none" fill-rule="evenodd">
        <g id="homepage_v01" transform="translate(-626.000000, -1955.000000)" fill="#8AD038" fill-rule="nonzero">
            <g id="RTB" transform="translate(253.000000, 1865.000000)">
                <path d="M417.59988,139.825813 C416.596615,139.103264 415.081683,137.841422 413.709387,135.987926 C413.507779,135.715661 413.689713,135.3125 414.019298,135.3125 L419.478778,135.3125 C419.739406,135.3125 419.926357,135.569057 419.862367,135.836086 L419.050823,139.239397 C418.888564,139.914823 418.145927,140.218503 417.59988,139.825813 Z M375.008137,117.816681 C374.347779,116.426165 373.675937,115.084225 373.113198,113.815151 C372.998353,113.55411 372.969642,113.256515 373.032806,112.971125 L374.060667,108.441319 C374.158285,108.004126 374.468366,107.651943 374.876065,107.518356 C377.075343,106.789701 384.098102,104.166543 384.729748,100.310743 C384.741233,100.231805 384.781429,100.165012 384.833109,100.110363 L390.822265,94.0078766 C390.97162,93.8560735 391.212794,93.8742898 391.344866,94.0443094 C391.907605,94.7911808 393.475179,96.4549433 395.806586,95.6352063 L395.083006,94.8640463 C394.93945,94.7183153 394.94525,94.4754303 395.088806,94.3296993 L397.827797,91.5972427 C397.890961,91.5304493 397.977095,91.4940166 398.068971,91.4940166 L406.418187,91.4940166 C406.716841,91.4940166 406.883309,91.8644162 406.693872,92.1073013 L404.012189,95.5501965 C403.880175,95.7262882 403.914571,95.9813175 404.09258,96.10276 C405.045792,96.7585495 407.830778,98.6834134 409.547708,99.8674779 C410.420643,100.468618 411.597802,100.092147 411.993902,99.0720294 C412.436112,97.9365419 412.849496,96.1695533 412.855238,93.5403229 C412.855238,93.497818 412.861037,93.449241 412.878207,93.4067362 L414.038197,90.2370865 C414.147242,89.9456245 414.526287,89.9152639 414.675585,90.1885095 C415.244124,91.2329152 416.260443,93.449241 416.260443,96.0359666 L416.817383,95.6109178 C416.972481,95.4894753 417.190629,95.525908 417.305473,95.6837833 L418.522886,97.35969 C418.574566,97.4325555 418.597477,97.5297095 418.591735,97.6207914 C418.511344,98.5255381 418.287454,103.510753 422.427609,105.508483 C422.5022,105.544915 422.565422,105.605637 422.599876,105.684574 L427.653047,116.371516 C427.676073,116.426225 427.6875,116.480814 427.6875,116.541535 L427.6875,121.041041 C427.6875,121.727191 427.411815,122.376909 426.923725,122.832318 C424.942652,124.690388 419.763209,129.845623 419.447386,133.416033 C419.430102,133.604269 419.280804,133.75 419.09711,133.75 L410.190896,133.75 C410.133474,133.75 410.076051,133.737856 410.024371,133.707495 C409.450147,133.379661 406.418187,129.17775 405.803825,125.103293 C405.75783,124.799687 405.396126,124.684316 405.195148,124.915057 L403.202533,127.246753 C403.018781,127.46535 402.754696,127.586792 402.479011,127.586792 C402.174615,127.586792 401.916214,127.356052 401.864649,127.040301 C401.634959,125.619363 400.612783,121.903283 396.329072,121.903283 C394.032176,121.903283 390.454761,122.83839 387.135747,123.89494 C387.135747,123.89494 383.460713,125.109365 380.744634,128.995526 C380.652758,129.129112 380.50346,129.20805 380.342677,129.20805 L378.103204,129.20805 C377.793123,129.20805 377.557691,128.916588 377.603629,128.594705 C378.1434,124.963573 376.633191,121.24136 375.008137,117.816681 Z" id="aus_green"></path>
            </g>
        </g>
    </g>
</svg>