<?xml version="1.0" encoding="UTF-8"?>
<svg width="90px" height="50px" viewBox="0 0 90 50" version="1.1" xmlns="http://www.w3.org/2000/svg" xmlns:xlink="http://www.w3.org/1999/xlink">
    <!-- Generator: sketchtool 53 (72520) - https://sketchapp.com -->
    <title>AFEE9C9C-340C-430C-A16E-C1D9B531E490_icon</title>
    <desc>Created with sketchtool.</desc>
    <g id="Desktop" stroke="none" stroke-width="1" fill="none" fill-rule="evenodd">
        <g id="homepage_v01" transform="translate(-316.000000, -1955.000000)" fill="#8AD038" fill-rule="nonzero">
            <g id="RTB" transform="translate(253.000000, 1865.000000)">
                <path d="M96.0254476,125.104145 C91.9113207,125.104145 88.5865516,128.442082 88.5865516,132.558046 C88.5865516,136.661771 91.9113207,140 96.0254476,140 C100.139574,140 103.464344,136.661771 103.464344,132.558046 C103.464198,128.442082 100.139574,125.104145 96.0254476,125.104145 Z M96.0254476,136.279023 C93.9683113,136.279023 92.3058539,134.603789 92.3058539,132.557755 C92.3058539,130.500064 93.9683113,128.836778 96.0254476,128.836778 C98.0824382,128.836778 99.7448956,130.500064 99.7448956,132.557755 C99.7447499,134.603789 98.0824382,136.279023 96.0254476,136.279023 Z M152.130435,119.598369 L152.130435,127.544875 C152.130435,129.527094 150.524194,131.134141 148.542498,131.134141 L144.703481,131.134141 C144.009807,126.372153 139.907769,122.711058 134.956369,122.711058 C130.017203,122.711058 125.914873,126.372299 125.221199,131.134141 L105.762948,131.134141 C105.069274,126.372153 100.967089,122.711058 96.0277778,122.711058 C91.0884662,122.711058 86.9862816,126.372299 86.2927536,131.134141 L81.4849531,131.134141 C79.503403,131.134141 77.8971618,129.52724 77.8971618,127.544875 L77.8971618,119.598369 L152.130435,119.598369 L152.130435,119.598369 Z M134.965981,125.104145 C130.851854,125.104145 127.515143,128.442082 127.515143,132.558046 C127.515143,136.661771 130.852,140 134.965981,140 C139.06802,140 142.404731,136.661771 142.404731,132.558046 C142.404731,128.442082 139.06802,125.104145 134.965981,125.104145 Z M134.965981,136.279023 C132.908845,136.279023 131.246533,134.603789 131.246533,132.557755 C131.246533,130.500064 132.908845,128.836778 134.965981,128.836778 C137.011029,128.836778 138.685429,130.500064 138.685429,132.557755 C138.685429,134.603789 137.011029,136.279023 134.965981,136.279023 Z M150.716727,111.596061 L136.616496,97.6453482 C135.719512,96.7599424 134.511591,96.2574306 133.255754,96.2574306 L126.139883,96.2574306 L126.139883,93.5892661 C126.139883,91.603259 124.537283,90 122.552092,90 L81.4824773,90 C79.5090828,90 77.894686,91.6034047 77.894686,93.5892661 L77.894686,94.1516598 L63.3349673,95.8303902 L89.1341503,99.1913479 L63,101.788557 L89.0421071,105.492634 L63,107.751533 L77.8955598,110.562044 L77.8945404,117.614256 L152.127959,117.614256 L152.127959,114.993881 C152.127959,113.713634 151.613711,112.493414 150.716727,111.596061 Z M144.569494,112.062586 L130.923654,112.062586 C130.612717,112.062586 130.361491,111.811403 130.361491,111.500338 L130.361491,100.959537 C130.361491,100.648472 130.612717,100.397143 130.923654,100.397143 L133.518922,100.397143 C133.662376,100.397143 133.805975,100.457025 133.913601,100.552748 L144.952376,111.09355 C145.322879,111.440456 145.071654,112.062586 144.569494,112.062586 Z" id="delivery_green"></path>
            </g>
        </g>
    </g>
</svg>