<?xml version="1.0" encoding="UTF-8"?>
<svg width="50px" height="50px" viewBox="0 0 50 50" version="1.1" xmlns="http://www.w3.org/2000/svg" xmlns:xlink="http://www.w3.org/1999/xlink">
    <!-- Generator: sketchtool 53 (72520) - https://sketchapp.com -->
    <title>890B14D9-D407-43ED-83B1-FDF7682EA0B3_icon</title>
    <desc>Created with sketchtool.</desc>
    <g id="Desktop" stroke="none" stroke-width="1" fill="none" fill-rule="evenodd">
        <g id="homepage_v01" transform="translate(-1214.000000, -1955.000000)" fill="#8AD038" fill-rule="nonzero">
            <g id="RTB" transform="translate(253.000000, 1865.000000)">
                <path d="M986,90 C972.193848,90 961,101.193848 961,115 C961,128.806152 972.193848,140 986,140 C999.806152,140 1011,128.806152 1011,115 C1011,101.193848 999.806152,90 986,90 Z M986,136.875 C973.939453,136.875 964.125,127.060547 964.125,115 C964.125,102.939453 973.939453,93.125 986,93.125 C998.060547,93.125 1007.875,102.939453 1007.875,115 C1007.875,127.060547 998.060547,136.875 986,136.875 Z M993.769727,115.961328 C994.364941,116.968457 994.663867,118.143359 994.663867,119.48916 C994.663867,121.555176 994.047461,123.276367 992.817578,124.652734 C991.587695,126.032129 989.811719,126.843945 987.489258,127.088086 L987.489258,130.625 L984.529004,130.625 L984.529004,127.106348 C980.656348,126.709668 978.260645,124.457422 977.336035,120.355859 L981.913672,119.162598 C982.337891,121.741309 983.741699,123.029199 986.125098,123.029199 C987.238965,123.029199 988.062988,122.75459 988.587891,122.202148 C989.112793,121.649707 989.375195,120.984473 989.375195,120.203223 C989.375195,119.394531 989.112695,118.781055 988.587891,118.366016 C988.062988,117.948047 986.894141,117.419922 985.084473,116.779102 C983.45791,116.214648 982.185254,115.659082 981.269727,115.103809 C980.354199,114.554492 979.60957,113.782422 979.038867,112.790527 C978.468164,111.795605 978.181348,110.635938 978.181348,109.317578 C978.181348,107.587207 978.694043,106.027734 979.713379,104.642285 C980.732715,103.259863 982.337891,102.414453 984.529102,102.10625 L984.529102,99.375 L987.489355,99.375 L987.489355,102.106348 C990.797461,102.503125 992.939844,104.373828 993.913281,107.721582 L989.836133,109.393945 C989.039648,107.099023 987.812695,105.951563 986.146582,105.951563 C985.310352,105.951563 984.638965,106.20791 984.135449,106.720605 C983.628809,107.233301 983.375586,107.855859 983.375586,108.585254 C983.375586,109.329883 983.619727,109.900586 984.108008,110.300391 C984.593262,110.697168 985.640039,111.188477 987.23916,111.777441 C988.996973,112.418359 990.376367,113.025586 991.374316,113.596289 C992.375098,114.166895 993.17168,114.957324 993.769727,115.961328 Z" id="price_green"></path>
            </g>
        </g>
    </g>
</svg>