<?xml version="1.0" encoding="UTF-8"?>
<svg width="73px" height="50px" viewBox="0 0 73 50" version="1.1" xmlns="http://www.w3.org/2000/svg" xmlns:xlink="http://www.w3.org/1999/xlink">
    <!-- Generator: sketchtool 53 (72520) - https://sketchapp.com -->
    <title>C18EC66D-201B-4273-8EE1-EFB6251FA9A3_icon</title>
    <desc>Created with sketchtool.</desc>
    <g id="Desktop" stroke="none" stroke-width="1" fill="none" fill-rule="evenodd">
        <g id="homepage_v01" transform="translate(-907.000000, -1955.000000)" fill="#8AD038" fill-rule="nonzero">
            <g id="RTB" transform="translate(253.000000, 1865.000000)">
                <path d="M688.522376,101.080582 L684.206475,111.793176 C684.060165,112.156416 683.72787,112.406044 683.345058,112.440383 L661.269074,114.423042 C660.727442,114.471628 660.316392,114.942513 660.33057,115.497784 L660.779508,133.208255 C660.791899,133.695214 661.129913,134.109719 661.596365,134.210179 L687.585421,139.79723 C688.220821,139.933856 688.866585,140.001438 689.51235,139.999977 L689.512827,134.747428 L689.512827,101.280894 C689.512589,99.8189234 689.066987,99.7288136 688.522376,101.080582 Z M685.500268,134.108501 L675.743977,132.50272 L675.743977,127.27623 L685.500268,127.27623 L685.500268,134.108501 Z M681.234288,109.894538 L655.217352,112.581393 C654.422537,112.663466 653.843374,111.828854 654.181983,111.089467 L661.109658,95.9551615 C661.250607,95.6472052 661.528571,95.4277757 661.855743,95.3664036 L690.442633,90.0001218 L682.071281,109.275094 C681.921396,109.620068 681.601969,109.856546 681.234288,109.894538 Z M719.814211,114.423042 L697.738346,112.440505 C697.355415,112.406166 697.02312,112.156537 696.876929,111.793297 L692.560908,101.080704 C692.016298,99.7288136 691.570577,99.8189234 691.570577,101.280894 L691.570577,134.747306 L691.571053,139.999855 C692.216699,140.001438 692.862583,139.933734 693.498102,139.797108 L719.487158,134.210057 C719.95361,134.109719 720.291624,133.695092 720.303896,133.208134 L720.752833,115.497784 C720.767012,114.942391 720.355724,114.471628 719.814211,114.423042 Z M710.729181,123.882866 L709.509972,123.917327 L709.485309,131.760045 C709.484237,132.105506 709.140861,132.435868 708.713846,132.49858 L706.715669,132.792289 C706.259225,132.859384 705.885706,132.62035 705.88654,132.257475 L705.905127,124.019614 L704.510537,124.059067 C703.832484,124.078185 703.403443,123.522548 703.748606,123.062623 L707.06524,118.645538 C707.379425,118.226893 708.15053,118.265494 708.453396,118.706545 L711.364699,122.947185 C711.640639,123.349392 711.291663,123.866792 710.729181,123.882866 Z M725.865814,112.581393 L699.848877,109.894538 C699.481196,109.856546 699.16165,109.620068 699.011885,109.274972 L690.640652,90 L719.227542,95.3662818 C719.554713,95.4276539 719.832678,95.6470834 719.973746,95.9550397 L726.90142,111.089345 C727.239911,111.828854 726.660629,112.663466 725.865814,112.581393 Z" id="returns_green"></path>
            </g>
        </g>
    </g>
</svg>